<mxfile host="www.draw.io" modified="2024-05-15T00:36:47.776Z" agent="Mozilla/5.0 (Windows NT 10.0; Win64; x64) AppleWebKit/537.36 (KHTML, like Gecko) Chrome/124.0.0.0 Safari/537.36" etag="buO1ifwfk-iT5v8UOA23" version="24.4.0" type="device">
  <diagram name="Page-1" id="jWZ5n9Klnfh3zpWST93G">
    <mxGraphModel dx="2686" dy="2017" grid="1" gridSize="10" guides="1" tooltips="1" connect="1" arrows="1" fold="1" page="1" pageScale="1" pageWidth="827" pageHeight="1169" math="0" shadow="0">
      <root>
        <mxCell id="0" />
        <mxCell id="1" parent="0" />
        <mxCell id="WOZH7U5dxf6inx2Zh-EG-4" value="" style="edgeStyle=orthogonalEdgeStyle;rounded=0;orthogonalLoop=1;jettySize=auto;html=1;fontSize=18;fontStyle=1;strokeWidth=2;" parent="1" source="WOZH7U5dxf6inx2Zh-EG-2" target="WOZH7U5dxf6inx2Zh-EG-3" edge="1">
          <mxGeometry relative="1" as="geometry" />
        </mxCell>
        <mxCell id="WOZH7U5dxf6inx2Zh-EG-2" value="&lt;font style=&quot;font-size: 18px;&quot;&gt;&lt;span style=&quot;font-size: 18px;&quot;&gt;Encryption&lt;/span&gt;&lt;/font&gt;&lt;div style=&quot;font-size: 18px;&quot;&gt;&lt;font style=&quot;font-size: 18px;&quot;&gt;&lt;span style=&quot;font-size: 18px;&quot;&gt;Key&lt;/span&gt;&lt;/font&gt;&lt;/div&gt;" style="rounded=1;whiteSpace=wrap;html=1;flipH=0;fontSize=18;fontStyle=1;strokeWidth=2;" parent="1" vertex="1">
          <mxGeometry x="-370" y="190" width="120" height="40" as="geometry" />
        </mxCell>
        <mxCell id="WOZH7U5dxf6inx2Zh-EG-65" style="edgeStyle=orthogonalEdgeStyle;rounded=0;orthogonalLoop=1;jettySize=auto;html=1;exitX=0.5;exitY=1;exitDx=0;exitDy=0;entryX=0.5;entryY=0;entryDx=0;entryDy=0;fontSize=18;fontStyle=1;strokeWidth=2;" parent="1" source="WOZH7U5dxf6inx2Zh-EG-3" target="WOZH7U5dxf6inx2Zh-EG-7" edge="1">
          <mxGeometry relative="1" as="geometry" />
        </mxCell>
        <mxCell id="WOZH7U5dxf6inx2Zh-EG-104" style="edgeStyle=orthogonalEdgeStyle;rounded=0;orthogonalLoop=1;jettySize=auto;html=1;exitX=1;exitY=0.5;exitDx=0;exitDy=0;entryX=0.5;entryY=0;entryDx=0;entryDy=0;fontSize=18;fontStyle=1;strokeWidth=2;" parent="1" source="WOZH7U5dxf6inx2Zh-EG-3" target="WOZH7U5dxf6inx2Zh-EG-55" edge="1">
          <mxGeometry relative="1" as="geometry" />
        </mxCell>
        <mxCell id="WOZH7U5dxf6inx2Zh-EG-106" style="edgeStyle=orthogonalEdgeStyle;rounded=0;orthogonalLoop=1;jettySize=auto;html=1;exitX=1;exitY=0.5;exitDx=0;exitDy=0;entryX=0.5;entryY=0;entryDx=0;entryDy=0;fontSize=18;fontStyle=1;strokeWidth=2;" parent="1" source="WOZH7U5dxf6inx2Zh-EG-3" target="WOZH7U5dxf6inx2Zh-EG-89" edge="1">
          <mxGeometry relative="1" as="geometry" />
        </mxCell>
        <mxCell id="WOZH7U5dxf6inx2Zh-EG-132" style="edgeStyle=orthogonalEdgeStyle;rounded=0;orthogonalLoop=1;jettySize=auto;html=1;exitX=1;exitY=0.5;exitDx=0;exitDy=0;entryX=0.5;entryY=1;entryDx=0;entryDy=0;fontSize=18;fontStyle=1;strokeWidth=2;" parent="1" source="WOZH7U5dxf6inx2Zh-EG-3" target="WOZH7U5dxf6inx2Zh-EG-120" edge="1">
          <mxGeometry relative="1" as="geometry" />
        </mxCell>
        <mxCell id="WOZH7U5dxf6inx2Zh-EG-133" style="edgeStyle=orthogonalEdgeStyle;rounded=0;orthogonalLoop=1;jettySize=auto;html=1;exitX=1;exitY=0.5;exitDx=0;exitDy=0;entryX=0.5;entryY=1;entryDx=0;entryDy=0;fontSize=18;fontStyle=1;strokeWidth=2;" parent="1" source="WOZH7U5dxf6inx2Zh-EG-3" target="WOZH7U5dxf6inx2Zh-EG-110" edge="1">
          <mxGeometry relative="1" as="geometry" />
        </mxCell>
        <mxCell id="WOZH7U5dxf6inx2Zh-EG-147" style="edgeStyle=orthogonalEdgeStyle;rounded=0;orthogonalLoop=1;jettySize=auto;html=1;exitX=1;exitY=0.5;exitDx=0;exitDy=0;entryX=0.75;entryY=1;entryDx=0;entryDy=0;fontSize=18;fontStyle=1;strokeWidth=2;" parent="1" source="WOZH7U5dxf6inx2Zh-EG-3" target="WOZH7U5dxf6inx2Zh-EG-68" edge="1">
          <mxGeometry relative="1" as="geometry" />
        </mxCell>
        <mxCell id="WOZH7U5dxf6inx2Zh-EG-3" value="&lt;font style=&quot;font-size: 18px;&quot;&gt;&lt;span style=&quot;font-size: 18px;&quot;&gt;Key Extension&lt;/span&gt;&lt;/font&gt;" style="rounded=1;whiteSpace=wrap;html=1;flipH=0;fontSize=18;fontStyle=1;strokeWidth=2;" parent="1" vertex="1">
          <mxGeometry x="-224.5" y="185" width="140" height="50" as="geometry" />
        </mxCell>
        <mxCell id="WOZH7U5dxf6inx2Zh-EG-8" value="" style="edgeStyle=orthogonalEdgeStyle;rounded=0;orthogonalLoop=1;jettySize=auto;html=1;fontSize=18;fontStyle=1;strokeWidth=2;" parent="1" source="WOZH7U5dxf6inx2Zh-EG-6" target="WOZH7U5dxf6inx2Zh-EG-7" edge="1">
          <mxGeometry relative="1" as="geometry" />
        </mxCell>
        <mxCell id="WOZH7U5dxf6inx2Zh-EG-6" value="&lt;font style=&quot;font-size: 18px;&quot;&gt;&lt;span style=&quot;font-size: 18px;&quot;&gt;Plaintext&lt;/span&gt;&lt;/font&gt;" style="rounded=0;whiteSpace=wrap;html=1;flipH=0;fontSize=18;fontStyle=1;strokeWidth=2;" parent="1" vertex="1">
          <mxGeometry x="-350" y="359.97" width="100" height="50" as="geometry" />
        </mxCell>
        <mxCell id="WOZH7U5dxf6inx2Zh-EG-64" value="" style="edgeStyle=orthogonalEdgeStyle;rounded=0;orthogonalLoop=1;jettySize=auto;html=1;fontSize=18;fontStyle=1;strokeWidth=2;" parent="1" source="WOZH7U5dxf6inx2Zh-EG-7" target="WOZH7U5dxf6inx2Zh-EG-56" edge="1">
          <mxGeometry relative="1" as="geometry" />
        </mxCell>
        <mxCell id="WOZH7U5dxf6inx2Zh-EG-7" value="&lt;font style=&quot;font-size: 18px;&quot;&gt;&lt;span style=&quot;font-size: 18px;&quot;&gt;addRoundkey&amp;nbsp;&lt;/span&gt;&lt;/font&gt;" style="rounded=0;whiteSpace=wrap;html=1;flipH=0;fontSize=18;fontStyle=1;strokeWidth=2;" parent="1" vertex="1">
          <mxGeometry x="-220" y="359.97" width="131" height="50" as="geometry" />
        </mxCell>
        <mxCell id="WOZH7U5dxf6inx2Zh-EG-86" style="edgeStyle=orthogonalEdgeStyle;rounded=0;orthogonalLoop=1;jettySize=auto;html=1;exitX=1;exitY=0.5;exitDx=0;exitDy=0;dashed=1;dashPattern=1 1;strokeWidth=2;entryX=0;entryY=0.5;entryDx=0;entryDy=0;fontSize=18;fontStyle=1" parent="1" source="WOZH7U5dxf6inx2Zh-EG-55" target="WOZH7U5dxf6inx2Zh-EG-89" edge="1">
          <mxGeometry relative="1" as="geometry">
            <mxPoint x="560" y="375" as="targetPoint" />
          </mxGeometry>
        </mxCell>
        <mxCell id="WOZH7U5dxf6inx2Zh-EG-55" value="" style="swimlane;startSize=0;fontSize=18;fontStyle=1;strokeWidth=2;" parent="1" vertex="1">
          <mxGeometry x="-80" y="300" width="510" height="150" as="geometry" />
        </mxCell>
        <mxCell id="WOZH7U5dxf6inx2Zh-EG-60" style="edgeStyle=orthogonalEdgeStyle;rounded=0;orthogonalLoop=1;jettySize=auto;html=1;exitX=0.5;exitY=0;exitDx=0;exitDy=0;entryX=0.25;entryY=0;entryDx=0;entryDy=0;fontSize=18;fontStyle=1;strokeWidth=2;" parent="WOZH7U5dxf6inx2Zh-EG-55" source="WOZH7U5dxf6inx2Zh-EG-56" target="WOZH7U5dxf6inx2Zh-EG-57" edge="1">
          <mxGeometry relative="1" as="geometry" />
        </mxCell>
        <mxCell id="WOZH7U5dxf6inx2Zh-EG-56" value="&lt;span style=&quot;font-size: 18px;&quot;&gt;&lt;span style=&quot;font-size: 18px;&quot;&gt;Subytes&lt;/span&gt;&lt;/span&gt;" style="rounded=0;whiteSpace=wrap;html=1;flipH=0;fontSize=18;fontStyle=1;strokeWidth=2;" parent="WOZH7U5dxf6inx2Zh-EG-55" vertex="1">
          <mxGeometry x="10" y="59.97" width="90" height="50" as="geometry" />
        </mxCell>
        <mxCell id="WOZH7U5dxf6inx2Zh-EG-62" style="edgeStyle=orthogonalEdgeStyle;rounded=0;orthogonalLoop=1;jettySize=auto;html=1;exitX=0.75;exitY=0;exitDx=0;exitDy=0;entryX=0.5;entryY=0;entryDx=0;entryDy=0;fontSize=18;fontStyle=1;strokeWidth=2;" parent="WOZH7U5dxf6inx2Zh-EG-55" source="WOZH7U5dxf6inx2Zh-EG-57" target="WOZH7U5dxf6inx2Zh-EG-58" edge="1">
          <mxGeometry relative="1" as="geometry" />
        </mxCell>
        <mxCell id="WOZH7U5dxf6inx2Zh-EG-57" value="&lt;font style=&quot;font-size: 18px;&quot;&gt;&lt;span style=&quot;font-size: 18px;&quot;&gt;ShifrRow&lt;/span&gt;&lt;/font&gt;" style="rounded=0;whiteSpace=wrap;html=1;flipH=0;fontSize=18;fontStyle=1;strokeWidth=2;" parent="WOZH7U5dxf6inx2Zh-EG-55" vertex="1">
          <mxGeometry x="120" y="59.97" width="90" height="50" as="geometry" />
        </mxCell>
        <mxCell id="WOZH7U5dxf6inx2Zh-EG-63" style="edgeStyle=orthogonalEdgeStyle;rounded=0;orthogonalLoop=1;jettySize=auto;html=1;exitX=0.75;exitY=0;exitDx=0;exitDy=0;entryX=0.5;entryY=0;entryDx=0;entryDy=0;fontSize=18;fontStyle=1;strokeWidth=2;" parent="WOZH7U5dxf6inx2Zh-EG-55" source="WOZH7U5dxf6inx2Zh-EG-58" target="WOZH7U5dxf6inx2Zh-EG-59" edge="1">
          <mxGeometry relative="1" as="geometry" />
        </mxCell>
        <mxCell id="WOZH7U5dxf6inx2Zh-EG-58" value="&lt;font style=&quot;font-size: 18px;&quot;&gt;&lt;span style=&quot;font-size: 18px;&quot;&gt;MixColumn&lt;/span&gt;&lt;/font&gt;" style="rounded=0;whiteSpace=wrap;html=1;flipH=0;fontSize=18;fontStyle=1;strokeWidth=2;" parent="WOZH7U5dxf6inx2Zh-EG-55" vertex="1">
          <mxGeometry x="220" y="59.97" width="120" height="50" as="geometry" />
        </mxCell>
        <mxCell id="WOZH7U5dxf6inx2Zh-EG-59" value="&lt;font style=&quot;font-size: 18px;&quot;&gt;&lt;span style=&quot;font-size: 18px;&quot;&gt;AddRoundkey&amp;nbsp;&lt;/span&gt;&lt;/font&gt;" style="rounded=0;whiteSpace=wrap;html=1;flipH=0;fontSize=18;fontStyle=1;strokeWidth=2;" parent="WOZH7U5dxf6inx2Zh-EG-55" vertex="1">
          <mxGeometry x="354" y="59.97" width="140" height="50" as="geometry" />
        </mxCell>
        <mxCell id="WOZH7U5dxf6inx2Zh-EG-67" value="&lt;font style=&quot;font-size: 18px;&quot;&gt;&lt;span style=&quot;font-size: 18px;&quot;&gt;Round One&lt;/span&gt;&lt;/font&gt;" style="text;html=1;align=center;verticalAlign=middle;resizable=0;points=[];autosize=1;strokeColor=none;fillColor=none;fontSize=18;fontStyle=1;strokeWidth=2;" parent="WOZH7U5dxf6inx2Zh-EG-55" vertex="1">
          <mxGeometry x="10" y="5" width="110" height="40" as="geometry" />
        </mxCell>
        <mxCell id="WOZH7U5dxf6inx2Zh-EG-152" style="edgeStyle=orthogonalEdgeStyle;rounded=0;orthogonalLoop=1;jettySize=auto;html=1;exitX=0;exitY=0.5;exitDx=0;exitDy=0;entryX=1;entryY=0.5;entryDx=0;entryDy=0;fontSize=18;fontStyle=1;strokeWidth=2;" parent="1" source="WOZH7U5dxf6inx2Zh-EG-68" target="WOZH7U5dxf6inx2Zh-EG-151" edge="1">
          <mxGeometry relative="1" as="geometry" />
        </mxCell>
        <mxCell id="WOZH7U5dxf6inx2Zh-EG-68" value="" style="swimlane;startSize=0;fontSize=18;fontStyle=1;strokeWidth=2;" parent="1" vertex="1">
          <mxGeometry x="-130" width="409" height="150" as="geometry" />
        </mxCell>
        <mxCell id="WOZH7U5dxf6inx2Zh-EG-71" style="edgeStyle=orthogonalEdgeStyle;rounded=0;orthogonalLoop=1;jettySize=auto;html=1;exitX=0.75;exitY=0;exitDx=0;exitDy=0;entryX=0.75;entryY=0;entryDx=0;entryDy=0;fontSize=18;fontStyle=1;strokeWidth=2;" parent="WOZH7U5dxf6inx2Zh-EG-68" source="WOZH7U5dxf6inx2Zh-EG-72" target="WOZH7U5dxf6inx2Zh-EG-74" edge="1">
          <mxGeometry relative="1" as="geometry" />
        </mxCell>
        <mxCell id="WOZH7U5dxf6inx2Zh-EG-72" value="&lt;font style=&quot;font-size: 18px;&quot;&gt;&lt;span style=&quot;font-size: 18px;&quot;&gt;Reverse Shift Row&lt;/span&gt;&lt;/font&gt;" style="rounded=0;whiteSpace=wrap;html=1;flipH=0;fontSize=18;fontStyle=1;strokeWidth=2;" parent="WOZH7U5dxf6inx2Zh-EG-68" vertex="1">
          <mxGeometry x="279" y="70" width="120" height="50" as="geometry" />
        </mxCell>
        <mxCell id="WOZH7U5dxf6inx2Zh-EG-73" style="edgeStyle=orthogonalEdgeStyle;rounded=0;orthogonalLoop=1;jettySize=auto;html=1;exitX=0.25;exitY=0;exitDx=0;exitDy=0;entryX=0.5;entryY=0;entryDx=0;entryDy=0;fontSize=18;fontStyle=1;strokeWidth=2;" parent="WOZH7U5dxf6inx2Zh-EG-68" source="WOZH7U5dxf6inx2Zh-EG-74" target="WOZH7U5dxf6inx2Zh-EG-75" edge="1">
          <mxGeometry relative="1" as="geometry" />
        </mxCell>
        <mxCell id="WOZH7U5dxf6inx2Zh-EG-74" value="&lt;span style=&quot;font-size: 18px;&quot;&gt;&lt;span style=&quot;font-size: 18px;&quot;&gt;Reverse Sub-bytes&lt;/span&gt;&lt;/span&gt;" style="rounded=0;whiteSpace=wrap;html=1;flipH=0;fontSize=18;fontStyle=1;strokeWidth=2;" parent="WOZH7U5dxf6inx2Zh-EG-68" vertex="1">
          <mxGeometry x="139" y="70" width="120" height="50" as="geometry" />
        </mxCell>
        <mxCell id="WOZH7U5dxf6inx2Zh-EG-75" value="&lt;font style=&quot;font-size: 18px;&quot;&gt;&lt;span style=&quot;font-size: 18px;&quot;&gt;Add&lt;/span&gt;&lt;/font&gt;&lt;div&gt;&lt;font style=&quot;font-size: 18px;&quot;&gt;&lt;span style=&quot;font-size: 18px;&quot;&gt;Roundkey&amp;nbsp;&lt;/span&gt;&lt;/font&gt;&lt;/div&gt;" style="rounded=0;whiteSpace=wrap;html=1;flipH=0;fontSize=18;fontStyle=1;strokeWidth=2;" parent="WOZH7U5dxf6inx2Zh-EG-68" vertex="1">
          <mxGeometry x="25" y="70" width="100" height="50" as="geometry" />
        </mxCell>
        <mxCell id="WOZH7U5dxf6inx2Zh-EG-76" value="&lt;font style=&quot;font-size: 18px;&quot;&gt;&lt;span style=&quot;font-size: 18px;&quot;&gt;Round (N-1)&lt;/span&gt;&lt;/font&gt;" style="text;html=1;align=center;verticalAlign=middle;resizable=0;points=[];autosize=1;strokeColor=none;fillColor=none;fontSize=18;fontStyle=1;strokeWidth=2;" parent="WOZH7U5dxf6inx2Zh-EG-68" vertex="1">
          <mxGeometry x="5" y="5" width="120" height="40" as="geometry" />
        </mxCell>
        <mxCell id="WOZH7U5dxf6inx2Zh-EG-89" value="" style="swimlane;startSize=0;fontSize=18;fontStyle=1;strokeWidth=2;" parent="1" vertex="1">
          <mxGeometry x="500" y="300" width="380" height="150" as="geometry" />
        </mxCell>
        <mxCell id="WOZH7U5dxf6inx2Zh-EG-90" style="edgeStyle=orthogonalEdgeStyle;rounded=0;orthogonalLoop=1;jettySize=auto;html=1;exitX=0.5;exitY=0;exitDx=0;exitDy=0;entryX=0.25;entryY=0;entryDx=0;entryDy=0;fontSize=18;fontStyle=1;strokeWidth=2;" parent="WOZH7U5dxf6inx2Zh-EG-89" source="WOZH7U5dxf6inx2Zh-EG-91" target="WOZH7U5dxf6inx2Zh-EG-93" edge="1">
          <mxGeometry relative="1" as="geometry" />
        </mxCell>
        <mxCell id="WOZH7U5dxf6inx2Zh-EG-91" value="&lt;span style=&quot;font-size: 18px;&quot;&gt;&lt;span style=&quot;font-size: 18px;&quot;&gt;Subytes&lt;/span&gt;&lt;/span&gt;" style="rounded=0;whiteSpace=wrap;html=1;flipH=0;fontSize=18;fontStyle=1;strokeWidth=2;" parent="WOZH7U5dxf6inx2Zh-EG-89" vertex="1">
          <mxGeometry x="10" y="59.97" width="90" height="50" as="geometry" />
        </mxCell>
        <mxCell id="WOZH7U5dxf6inx2Zh-EG-100" style="edgeStyle=orthogonalEdgeStyle;rounded=0;orthogonalLoop=1;jettySize=auto;html=1;exitX=0.5;exitY=0;exitDx=0;exitDy=0;entryX=0.5;entryY=0;entryDx=0;entryDy=0;fontSize=18;fontStyle=1;strokeWidth=2;" parent="WOZH7U5dxf6inx2Zh-EG-89" source="WOZH7U5dxf6inx2Zh-EG-93" target="WOZH7U5dxf6inx2Zh-EG-96" edge="1">
          <mxGeometry relative="1" as="geometry" />
        </mxCell>
        <mxCell id="WOZH7U5dxf6inx2Zh-EG-93" value="&lt;font style=&quot;font-size: 18px;&quot;&gt;&lt;span style=&quot;font-size: 18px;&quot;&gt;ShiftRow&lt;/span&gt;&lt;/font&gt;" style="rounded=0;whiteSpace=wrap;html=1;flipH=0;fontSize=18;fontStyle=1;strokeWidth=2;" parent="WOZH7U5dxf6inx2Zh-EG-89" vertex="1">
          <mxGeometry x="120" y="59.97" width="90" height="50" as="geometry" />
        </mxCell>
        <mxCell id="WOZH7U5dxf6inx2Zh-EG-96" value="&lt;font style=&quot;font-size: 18px;&quot;&gt;&lt;span style=&quot;font-size: 18px;&quot;&gt;AddRoundkey&amp;nbsp;&lt;/span&gt;&lt;/font&gt;" style="rounded=0;whiteSpace=wrap;html=1;flipH=0;fontSize=18;fontStyle=1;strokeWidth=2;" parent="WOZH7U5dxf6inx2Zh-EG-89" vertex="1">
          <mxGeometry x="220" y="59.97" width="140" height="50" as="geometry" />
        </mxCell>
        <mxCell id="WOZH7U5dxf6inx2Zh-EG-97" value="&lt;span style=&quot;font-size: 18px;&quot;&gt;&lt;span style=&quot;font-size: 18px;&quot;&gt;Round (N-1)&lt;/span&gt;&lt;/span&gt;" style="text;html=1;align=center;verticalAlign=middle;resizable=0;points=[];autosize=1;strokeColor=none;fillColor=none;fontSize=18;fontStyle=1;strokeWidth=2;" parent="WOZH7U5dxf6inx2Zh-EG-89" vertex="1">
          <mxGeometry x="5" y="5" width="120" height="40" as="geometry" />
        </mxCell>
        <mxCell id="WOZH7U5dxf6inx2Zh-EG-102" value="&lt;span style=&quot;font-size: 18px;&quot;&gt;&lt;span style=&quot;font-size: 18px;&quot;&gt;Cipher Text&lt;/span&gt;&lt;/span&gt;" style="rounded=0;whiteSpace=wrap;html=1;flipH=0;fontSize=18;fontStyle=1;strokeWidth=2;" parent="1" vertex="1">
          <mxGeometry x="900" y="359.97" width="120" height="50" as="geometry" />
        </mxCell>
        <mxCell id="WOZH7U5dxf6inx2Zh-EG-103" style="edgeStyle=orthogonalEdgeStyle;rounded=0;orthogonalLoop=1;jettySize=auto;html=1;exitX=1;exitY=0.5;exitDx=0;exitDy=0;entryX=0;entryY=0.5;entryDx=0;entryDy=0;fontSize=18;fontStyle=1;strokeWidth=2;" parent="1" source="WOZH7U5dxf6inx2Zh-EG-96" target="WOZH7U5dxf6inx2Zh-EG-102" edge="1">
          <mxGeometry relative="1" as="geometry" />
        </mxCell>
        <mxCell id="WOZH7U5dxf6inx2Zh-EG-107" value="" style="edgeStyle=orthogonalEdgeStyle;rounded=0;orthogonalLoop=1;jettySize=auto;html=1;fontSize=18;fontStyle=1;strokeWidth=2;" parent="1" source="WOZH7U5dxf6inx2Zh-EG-108" target="WOZH7U5dxf6inx2Zh-EG-110" edge="1">
          <mxGeometry relative="1" as="geometry" />
        </mxCell>
        <mxCell id="WOZH7U5dxf6inx2Zh-EG-108" value="&lt;font style=&quot;font-size: 18px;&quot;&gt;&lt;span style=&quot;font-size: 18px;&quot;&gt;Cipher&lt;/span&gt;&lt;/font&gt;" style="rounded=0;whiteSpace=wrap;html=1;flipH=0;fontSize=18;fontStyle=1;strokeWidth=2;" parent="1" vertex="1">
          <mxGeometry x="1070" y="50" width="100" height="50" as="geometry" />
        </mxCell>
        <mxCell id="WOZH7U5dxf6inx2Zh-EG-130" style="edgeStyle=orthogonalEdgeStyle;rounded=0;orthogonalLoop=1;jettySize=auto;html=1;exitX=0;exitY=0.5;exitDx=0;exitDy=0;entryX=1;entryY=0.5;entryDx=0;entryDy=0;fontSize=18;fontStyle=1;strokeWidth=2;" parent="1" source="WOZH7U5dxf6inx2Zh-EG-110" target="WOZH7U5dxf6inx2Zh-EG-120" edge="1">
          <mxGeometry relative="1" as="geometry" />
        </mxCell>
        <mxCell id="WOZH7U5dxf6inx2Zh-EG-110" value="&lt;font style=&quot;font-size: 18px;&quot;&gt;&lt;span style=&quot;font-size: 18px;&quot;&gt;addRoundkey&amp;nbsp;&lt;/span&gt;&lt;/font&gt;" style="rounded=0;whiteSpace=wrap;html=1;flipH=0;fontSize=18;fontStyle=1;strokeWidth=2;" parent="1" vertex="1">
          <mxGeometry x="900" y="50" width="130" height="50" as="geometry" />
        </mxCell>
        <mxCell id="WOZH7U5dxf6inx2Zh-EG-134" style="edgeStyle=orthogonalEdgeStyle;rounded=0;orthogonalLoop=1;jettySize=auto;html=1;exitX=0;exitY=0.5;exitDx=0;exitDy=0;dashed=1;dashPattern=1 1;strokeWidth=2;entryX=1;entryY=0.5;entryDx=0;entryDy=0;fontSize=18;fontStyle=1" parent="1" source="WOZH7U5dxf6inx2Zh-EG-120" target="WOZH7U5dxf6inx2Zh-EG-68" edge="1">
          <mxGeometry relative="1" as="geometry">
            <mxPoint x="251" y="75" as="targetPoint" />
          </mxGeometry>
        </mxCell>
        <mxCell id="WOZH7U5dxf6inx2Zh-EG-120" value="" style="swimlane;startSize=0;fontSize=18;fontStyle=1;strokeWidth=2;" parent="1" vertex="1">
          <mxGeometry x="341" width="540" height="150" as="geometry" />
        </mxCell>
        <mxCell id="WOZH7U5dxf6inx2Zh-EG-121" style="edgeStyle=orthogonalEdgeStyle;rounded=0;orthogonalLoop=1;jettySize=auto;html=1;exitX=0.5;exitY=0;exitDx=0;exitDy=0;entryX=0.25;entryY=0;entryDx=0;entryDy=0;fontSize=18;fontStyle=1;strokeWidth=2;" parent="WOZH7U5dxf6inx2Zh-EG-120" source="WOZH7U5dxf6inx2Zh-EG-122" target="WOZH7U5dxf6inx2Zh-EG-124" edge="1">
          <mxGeometry relative="1" as="geometry" />
        </mxCell>
        <mxCell id="WOZH7U5dxf6inx2Zh-EG-122" value="&lt;span style=&quot;font-size: 18px;&quot;&gt;&lt;span style=&quot;font-size: 18px;&quot;&gt;Reverse&lt;/span&gt;&lt;/span&gt;&lt;div style=&quot;font-size: 18px;&quot;&gt;&lt;span style=&quot;font-size: 18px;&quot;&gt;&lt;span style=&quot;font-size: 18px;&quot;&gt;Subytes&lt;/span&gt;&lt;/span&gt;&lt;/div&gt;" style="rounded=0;whiteSpace=wrap;html=1;flipH=0;fontSize=18;fontStyle=1;strokeWidth=2;" parent="WOZH7U5dxf6inx2Zh-EG-120" vertex="1">
          <mxGeometry x="10" y="59.97" width="120" height="50" as="geometry" />
        </mxCell>
        <mxCell id="WOZH7U5dxf6inx2Zh-EG-123" style="edgeStyle=orthogonalEdgeStyle;rounded=0;orthogonalLoop=1;jettySize=auto;html=1;exitX=0.75;exitY=0;exitDx=0;exitDy=0;entryX=0.5;entryY=0;entryDx=0;entryDy=0;fontSize=18;fontStyle=1;strokeWidth=2;" parent="WOZH7U5dxf6inx2Zh-EG-120" source="WOZH7U5dxf6inx2Zh-EG-124" target="WOZH7U5dxf6inx2Zh-EG-126" edge="1">
          <mxGeometry relative="1" as="geometry" />
        </mxCell>
        <mxCell id="WOZH7U5dxf6inx2Zh-EG-124" value="&lt;font style=&quot;font-size: 18px;&quot;&gt;&lt;span style=&quot;font-size: 18px;&quot;&gt;Reverse&lt;/span&gt;&lt;/font&gt;&lt;div style=&quot;font-size: 18px;&quot;&gt;&lt;font style=&quot;font-size: 18px;&quot;&gt;&lt;span style=&quot;font-size: 18px;&quot;&gt;ShifrRow&lt;/span&gt;&lt;/font&gt;&lt;/div&gt;" style="rounded=0;whiteSpace=wrap;html=1;flipH=0;fontSize=18;fontStyle=1;strokeWidth=2;" parent="WOZH7U5dxf6inx2Zh-EG-120" vertex="1">
          <mxGeometry x="150" y="60" width="120" height="49.97" as="geometry" />
        </mxCell>
        <mxCell id="WOZH7U5dxf6inx2Zh-EG-125" style="edgeStyle=orthogonalEdgeStyle;rounded=0;orthogonalLoop=1;jettySize=auto;html=1;exitX=0.75;exitY=0;exitDx=0;exitDy=0;entryX=0.5;entryY=0;entryDx=0;entryDy=0;fontSize=18;fontStyle=1;strokeWidth=2;" parent="WOZH7U5dxf6inx2Zh-EG-120" source="WOZH7U5dxf6inx2Zh-EG-126" target="WOZH7U5dxf6inx2Zh-EG-127" edge="1">
          <mxGeometry relative="1" as="geometry" />
        </mxCell>
        <mxCell id="WOZH7U5dxf6inx2Zh-EG-126" value="&lt;font style=&quot;font-size: 18px;&quot;&gt;&lt;span style=&quot;font-size: 18px;&quot;&gt;Reverse MixColumn&lt;/span&gt;&lt;/font&gt;" style="rounded=0;whiteSpace=wrap;html=1;flipH=0;fontSize=18;fontStyle=1;strokeWidth=2;" parent="WOZH7U5dxf6inx2Zh-EG-120" vertex="1">
          <mxGeometry x="280" y="59.97" width="120" height="50" as="geometry" />
        </mxCell>
        <mxCell id="WOZH7U5dxf6inx2Zh-EG-127" value="&lt;span style=&quot;font-size: 18px;&quot;&gt;&lt;span style=&quot;font-size: 18px;&quot;&gt;Reverse Shift Rows&lt;/span&gt;&lt;/span&gt;" style="rounded=0;whiteSpace=wrap;html=1;flipH=0;fontSize=18;fontStyle=1;strokeWidth=2;" parent="WOZH7U5dxf6inx2Zh-EG-120" vertex="1">
          <mxGeometry x="410" y="59.97" width="120" height="50" as="geometry" />
        </mxCell>
        <mxCell id="WOZH7U5dxf6inx2Zh-EG-128" value="&lt;span style=&quot;font-size: 18px;&quot;&gt;&lt;span style=&quot;font-size: 18px;&quot;&gt;Round One&lt;/span&gt;&lt;/span&gt;" style="text;html=1;align=center;verticalAlign=middle;resizable=0;points=[];autosize=1;strokeColor=none;fillColor=none;fontSize=18;fontStyle=1;strokeWidth=2;" parent="WOZH7U5dxf6inx2Zh-EG-120" vertex="1">
          <mxGeometry x="10" y="5" width="110" height="40" as="geometry" />
        </mxCell>
        <mxCell id="WOZH7U5dxf6inx2Zh-EG-135" value="&lt;span style=&quot;font-size: 18px;&quot;&gt;&lt;span style=&quot;font-size: 18px;&quot;&gt;Multiple Rounds with&amp;nbsp;&lt;/span&gt;&lt;/span&gt;&lt;div style=&quot;font-size: 18px;&quot;&gt;&lt;span style=&quot;font-size: 18px;&quot;&gt;&lt;span style=&quot;font-size: 18px;&quot;&gt;same operation as Round One&lt;/span&gt;&lt;/span&gt;&lt;/div&gt;" style="text;html=1;align=center;verticalAlign=middle;resizable=0;points=[];autosize=1;strokeColor=none;fillColor=none;fontSize=18;fontStyle=1;strokeWidth=2;" parent="1" vertex="1">
          <mxGeometry x="180" y="150" width="260" height="60" as="geometry" />
        </mxCell>
        <mxCell id="WOZH7U5dxf6inx2Zh-EG-151" value="&lt;font style=&quot;font-size: 18px;&quot;&gt;&lt;span style=&quot;font-size: 18px;&quot;&gt;Plaintext&lt;/span&gt;&lt;/font&gt;" style="rounded=0;whiteSpace=wrap;html=1;flipH=0;fontSize=18;fontStyle=1;strokeWidth=2;" parent="1" vertex="1">
          <mxGeometry x="-290" y="50" width="100" height="50" as="geometry" />
        </mxCell>
        <mxCell id="WOZH7U5dxf6inx2Zh-EG-153" value="&lt;span style=&quot;font-size: 18px;&quot;&gt;&lt;span style=&quot;font-size: 18px;&quot;&gt;Multiple Rounds with&amp;nbsp;&lt;/span&gt;&lt;/span&gt;&lt;div style=&quot;font-size: 18px;&quot;&gt;&lt;span style=&quot;font-size: 18px;&quot;&gt;&lt;span style=&quot;font-size: 18px;&quot;&gt;same operation as Round One&lt;/span&gt;&lt;/span&gt;&lt;/div&gt;" style="text;html=1;align=center;verticalAlign=middle;resizable=0;points=[];autosize=1;strokeColor=none;fillColor=none;fontSize=18;fontStyle=1;strokeWidth=2;" parent="1" vertex="1">
          <mxGeometry x="356" y="250" width="260" height="60" as="geometry" />
        </mxCell>
        <mxCell id="WOZH7U5dxf6inx2Zh-EG-154" value="&lt;font style=&quot;font-size: 25px;&quot;&gt;Decryption&lt;/font&gt;" style="text;html=1;align=center;verticalAlign=middle;resizable=0;points=[];autosize=1;strokeColor=none;fillColor=none;fontSize=18;fontStyle=1;strokeWidth=2;" parent="1" vertex="1">
          <mxGeometry x="300" y="-57" width="140" height="40" as="geometry" />
        </mxCell>
        <mxCell id="WOZH7U5dxf6inx2Zh-EG-155" value="&lt;font style=&quot;font-size: 25px;&quot;&gt;Encryption&lt;/font&gt;" style="text;html=1;align=center;verticalAlign=middle;resizable=0;points=[];autosize=1;strokeColor=none;fillColor=none;fontSize=18;fontStyle=1;strokeWidth=2;" parent="1" vertex="1">
          <mxGeometry x="310" y="460" width="140" height="40" as="geometry" />
        </mxCell>
      </root>
    </mxGraphModel>
  </diagram>
</mxfile>
